<?xml version="1.0" encoding="utf-8"?>
<!-- Generator: Adobe Illustrator 15.0.2, SVG Export Plug-In . SVG Version: 6.00 Build 0)  -->
<!DOCTYPE svg PUBLIC "-//W3C//DTD SVG 1.1//EN" "http://www.w3.org/Graphics/SVG/1.1/DTD/svg11.dtd">
<svg version="1.1" id="Layer_1" xmlns="http://www.w3.org/2000/svg" xmlns:xlink="http://www.w3.org/1999/xlink" x="0px" y="0px"
	 width="100px" height="100px" viewBox="0 0 100 100" enable-background="new 0 0 100 100" xml:space="preserve">
<g>
	<path fill="#FFFFFF" d="M50.001,0C22.385,0-0.001,22.385-0.001,50c0,27.614,22.386,50,50.002,50c27.613,0,50-22.386,50-50
		C100.001,22.385,77.614,0,50.001,0z"/>
</g>
<g>
	<path fill="#4579A0" d="M73.5,35.905"/>
	<path fill="#4579A0" d="M73.501,64.105"/>
	<polygon fill="#4579A0" points="73.5,40.608 61.471,50.245 73.5,59.395 	"/>
	<path fill="#4579A0" d="M68.808,31.204l-37.616-0.001c-2.578,0.002-4.691,2.114-4.692,4.702L50,54.703l23.5-18.798
		C73.5,33.31,71.393,31.204,68.808,31.204z"/>
	<polygon fill="#4579A0" points="26.5,40.608 26.499,59.395 38.529,50.245 	"/>
	<path fill="#4579A0" d="M73.501,64.105L58.534,52.59L50,59.395l-8.532-6.805L26.5,64.105c-0.001,2.584,2.108,4.691,4.691,4.691
		h37.617C71.393,68.799,73.5,66.689,73.501,64.105z"/>
</g>
</svg>
