<?xml version="1.0" encoding="utf-8"?>
<!-- Generator: Adobe Illustrator 24.3.0, SVG Export Plug-In . SVG Version: 6.00 Build 0)  -->
<svg version="1.1" id="Layer_1" xmlns="http://www.w3.org/2000/svg" xmlns:xlink="http://www.w3.org/1999/xlink" x="0px" y="0px"
	 viewBox="0 0 12 12" style="enable-background:new 0 0 12 12;" xml:space="preserve">
<style type="text/css">
	.st0{fill:#FFFFFF;}
</style>
<path class="st0" d="M6,0.1c-3.3,0-6,2.7-6,6c0,2.8,1.9,5.2,4.5,5.8c0-0.1,0-0.2,0-0.3v-1H3.8c-0.4,0-0.8-0.2-0.9-0.5
	C2.6,9.7,2.6,9.2,2.1,8.8C2,8.7,2.1,8.6,2.2,8.6C2.5,8.7,2.8,8.9,3,9.2s0.3,0.4,0.8,0.4c0.2,0,0.5,0,0.8-0.1c0.2-0.4,0.4-0.8,0.8-1
	c-2-0.2-3-1.2-3-2.6c0-0.6,0.3-1.1,0.7-1.6C3,3.9,2.8,3,3.2,2.6c0.9,0,1.4,0.6,1.6,0.7c0.4-0.2,0.9-0.2,1.5-0.2c0.5,0,1,0.1,1.5,0.2
	c0.1-0.2,0.7-0.7,1.6-0.7c0.4,0.4,0.2,1.3,0,1.8C9.8,4.8,10,5.4,10,6c0,1.3-1,2.3-3,2.5c0.6,0.3,1,1.1,1,1.7v1.4v0.1
	c2.3-0.8,4-3,4-5.7C12,2.8,9.3,0.1,6,0.1L6,0.1z"/>
</svg>
