<?xml version="1.0" encoding="utf-8"?>
<!-- Generator: Adobe Illustrator 15.0.2, SVG Export Plug-In . SVG Version: 6.00 Build 0)  -->
<!DOCTYPE svg PUBLIC "-//W3C//DTD SVG 1.1//EN" "http://www.w3.org/Graphics/SVG/1.1/DTD/svg11.dtd">
<svg version="1.1" id="Layer_1" xmlns="http://www.w3.org/2000/svg" xmlns:xlink="http://www.w3.org/1999/xlink" x="0px" y="0px"
	 width="100px" height="100px" viewBox="0 0 100 100" enable-background="new 0 0 100 100" xml:space="preserve">
<g>
	<path fill="#FFFFFF" d="M50.001,0C22.385,0-0.001,22.385-0.001,50c0,27.614,22.386,50,50.002,50c27.613,0,50-22.386,50-50
		C100.001,22.385,77.614,0,50.001,0z"/>
</g>
<path fill="#4579A0" d="M38.809,68.757V39.965h-9.575v28.792H38.809z M73.334,68.757V52.264c0-8.854-4.713-12.975-11.034-12.975
	c-5.062,0-7.333,2.792-8.632,4.754v-4.078h-9.559c0.13,2.704,0,28.792,0,28.792h9.559V52.698c0-0.87,0.08-1.741,0.338-2.352
	c0.664-1.716,2.271-3.51,4.892-3.51c3.485,0,4.843,2.671,4.843,6.519v15.401H73.334z M34.078,26.072c-3.273,0-5.41,2.158-5.41,4.974
	c0,2.769,2.072,4.992,5.28,4.992h0.083c3.337,0,5.41-2.223,5.41-4.992C39.377,28.23,37.369,26.072,34.078,26.072z"/>
</svg>
