<?xml version="1.0" encoding="utf-8"?>
<!-- Generator: Adobe Illustrator 24.3.0, SVG Export Plug-In . SVG Version: 6.00 Build 0)  -->
<svg version="1.1" id="Layer_1" xmlns="http://www.w3.org/2000/svg" xmlns:xlink="http://www.w3.org/1999/xlink" x="0px" y="0px"
	 viewBox="0 0 367.72 170" style="enable-background:new 0 0 367.72 170;" xml:space="preserve">
<style type="text/css">
	.st0{fill:#051F34;}
	.st1{fill:#55A0D7;}
	.st2{fill:#086BAE;}
	.st3{fill:#FFFFFF;}
	.st4{fill:#F4DE16;}
	.st5{fill:#020202;}
	.st6{fill:#E55126;}
	.st7{fill:#450F22;}
	.st8{fill:#ED3A68;}
	.st9{fill:#2F1111;}
	.st10{fill:#F7991C;}
	.st11{fill:none;}
	.st12{fill:#435BA8;}
	.st13{fill:#21759B;}
</style>
<g id="Layer_2_1_">
	<g id="Surfaces">
		<g id="Photo_Surface">
			<g id="Outline_no_shadow">
				<path class="st0" d="M13.62,93.59H63.3c7.53,0,13.62,6.09,13.62,13.62v47.76c0,7.53-6.09,13.62-13.62,13.62H13.62
					C6.09,168.59,0,162.5,0,154.97v-47.76C0,99.68,6.09,93.59,13.62,93.59z"/>
			</g>
		</g>
	</g>
	<g id="Outlined_Mnemonics_Logos">
		<g id="Ps">
			<path class="st1" d="M17.31,146.19v-32.98c0-0.22,0.1-0.35,0.32-0.35c0.54,0,1.06,0,1.79-0.03c0.77-0.03,1.57-0.03,2.44-0.06
				c0.87-0.03,1.8-0.03,2.79-0.06c0.99-0.03,1.96-0.03,2.92-0.03c2.63,0,4.81,0.32,6.6,0.99c1.6,0.54,3.08,1.44,4.29,2.63
				c1.03,1.03,1.83,2.28,2.34,3.65c0.48,1.35,0.74,2.72,0.74,4.17c0,2.76-0.64,5.03-1.92,6.83c-1.28,1.79-3.08,3.14-5.16,3.91
				c-2.18,0.8-4.58,1.09-7.21,1.09c-0.77,0-1.28,0-1.6-0.03c-0.32-0.03-0.77-0.03-1.38-0.03v10.29c0.03,0.22-0.13,0.42-0.35,0.45
				c-0.03,0-0.06,0-0.13,0h-6.09C17.44,146.6,17.31,146.48,17.31,146.19z M24.29,119.04v10.77c0.45,0.03,0.87,0.06,1.25,0.06h1.7
				c1.25,0,2.5-0.19,3.69-0.58c1.03-0.29,1.92-0.9,2.63-1.7c0.67-0.8,0.99-1.89,0.99-3.3c0.03-0.99-0.22-1.99-0.74-2.85
				c-0.54-0.83-1.31-1.47-2.24-1.83c-1.19-0.48-2.47-0.67-3.78-0.64c-0.83,0-1.57,0-2.18,0.03
				C24.97,118.98,24.52,119.01,24.29,119.04L24.29,119.04z"/>
			<path class="st1" d="M61.54,127.85c-0.96-0.51-1.99-0.87-3.08-1.09c-1.19-0.26-2.37-0.42-3.59-0.42
				c-0.64-0.03-1.31,0.06-1.92,0.22c-0.42,0.1-0.77,0.32-0.99,0.64c-0.16,0.26-0.26,0.58-0.26,0.86c0,0.29,0.13,0.58,0.32,0.83
				c0.29,0.35,0.67,0.64,1.09,0.87c0.74,0.38,1.51,0.74,2.28,1.06c1.73,0.58,3.4,1.38,4.94,2.34c1.06,0.67,1.92,1.57,2.53,2.66
				c0.51,1.03,0.77,2.15,0.74,3.3c0.03,1.51-0.42,3.01-1.25,4.26c-0.9,1.28-2.15,2.28-3.59,2.85c-1.57,0.67-3.49,1.03-5.8,1.03
				c-1.47,0-2.92-0.13-4.36-0.42c-1.12-0.19-2.24-0.54-3.27-1.03c-0.22-0.13-0.38-0.35-0.35-0.61v-5.58c0-0.1,0.03-0.22,0.13-0.29
				c0.1-0.06,0.19-0.03,0.29,0.03c1.25,0.74,2.56,1.25,3.98,1.57c1.22,0.32,2.5,0.48,3.78,0.48c1.22,0,2.08-0.16,2.66-0.45
				c0.51-0.22,0.86-0.77,0.86-1.35c0-0.45-0.26-0.87-0.77-1.28s-1.57-0.9-3.14-1.51c-1.63-0.58-3.14-1.35-4.55-2.31
				c-0.99-0.7-1.83-1.63-2.44-2.72c-0.51-1.03-0.77-2.15-0.74-3.27c0-1.38,0.38-2.69,1.09-3.88c0.8-1.28,1.99-2.31,3.37-2.95
				c1.51-0.77,3.4-1.12,5.67-1.12c1.31,0,2.66,0.1,3.97,0.29c0.96,0.13,1.89,0.38,2.76,0.74c0.13,0.03,0.26,0.16,0.32,0.29
				c0.03,0.13,0.06,0.26,0.06,0.39v5.22c0,0.13-0.06,0.26-0.16,0.32C61.83,127.92,61.67,127.92,61.54,127.85z"/>
		</g>
	</g>
</g>
<g>
	<path class="st2" d="M493.39,0h49.68c7.53,0,13.62,6.09,13.62,13.62v47.76c0,7.53-6.09,13.62-13.62,13.62h-49.68
		c-7.53,0-13.62-6.09-13.62-13.62V13.62C479.77,6.09,485.86,0,493.39,0z"/>
	<path class="st3" d="M500.85,15.13c-3.56,5.03-3.1,11.69-0.39,17.03c0,0.16,0.08,0.31,0.16,0.46c0,0.08,0.08,0.16,0.15,0.23
		c0,0.08,0.08,0.08,0.08,0.15c0.08,0.08,0.08,0.16,0.16,0.23c0.08,0.16,0.16,0.31,0.23,0.47c0.08,0.08,0.08,0.15,0.16,0.23
		c0.08,0.16,0.23,0.31,0.31,0.47c0.08,0.08,0.08,0.16,0.16,0.23c0.15,0.23,0.31,0.39,0.46,0.62l0,0l0.08,0.07
		c0.16,0.16,0.23,0.39,0.39,0.54c0.08,0.08,0.08,0.16,0.15,0.16c0.16,0.15,0.23,0.31,0.39,0.46c0.08,0.08,0.08,0.08,0.15,0.16
		c0.15,0.23,0.31,0.39,0.54,0.54l0,0l0,0c0.16,0.15,0.31,0.39,0.54,0.54c0.08,0.08,0.08,0.08,0.15,0.16
		c0.16,0.15,0.23,0.23,0.39,0.39c0.08,0.08,0.08,0.08,0.16,0.15c0.15,0.16,0.39,0.31,0.54,0.54l0,0l0.08,0.08
		c0.16,0.15,0.31,0.31,0.54,0.46c0.08,0.08,0.15,0.08,0.23,0.15c0.16,0.08,0.31,0.23,0.47,0.31c0.08,0.08,0.15,0.08,0.23,0.16
		c0.16,0.15,0.31,0.23,0.47,0.31c0.08,0.08,0.08,0.08,0.16,0.15c0,0,0,0,0.08,0c0.16,0.08,0.31,0.23,0.46,0.31
		c0.08,0.08,0.16,0.08,0.23,0.15c0.23,0.15,0.46,0.31,0.7,0.46c0.08,0,0.15,0.08,0.23,0.08c0.16,0.08,0.39,0.23,0.54,0.31
		c0.08,0.08,0.23,0.08,0.31,0.16c0.15,0.08,0.23,0.15,0.39,0.23c0,0,0.08,0,0.08,0.08c0.08,0,0.08,0.08,0.15,0.08
		c0.23,0.08,0.39,0.23,0.62,0.31c0.08,0,0.08,0,0.15,0.08c0.23,0.08,0.47,0.23,0.7,0.31c0.08,0,0.08,0.08,0.16,0.08
		c0.23,0.08,0.47,0.15,0.7,0.23h0.08c0.23,0.08,0.54,0.16,0.77,0.23c0.08,0,0.15,0.08,0.15,0.08c0.23,0.08,0.54,0.16,0.77,0.23
		c17.03,3.09,21.98-10.22,21.98-10.22c-4.18,5.42-11.53,6.81-18.58,5.26c-0.23-0.08-0.54-0.15-0.77-0.23c-0.08,0-0.16,0-0.16-0.08
		c-0.23-0.08-0.54-0.16-0.77-0.23c0,0-0.08,0-0.08-0.08c-0.23-0.08-0.46-0.15-0.69-0.23c-0.08,0-0.16-0.08-0.16-0.08
		c-0.23-0.08-0.46-0.23-0.7-0.31c-0.08,0-0.08-0.08-0.15-0.08c-0.23-0.08-0.39-0.15-0.62-0.31c-0.08,0-0.08-0.08-0.15-0.08
		c-0.15-0.08-0.31-0.15-0.47-0.23c-0.08-0.08-0.23-0.08-0.31-0.16c-0.16-0.08-0.39-0.23-0.55-0.31c-0.08-0.08-0.15-0.08-0.15-0.08
		c-0.23-0.15-0.46-0.31-0.7-0.46c-0.08-0.08-0.15-0.08-0.23-0.16c-0.15-0.08-0.39-0.23-0.54-0.31c-0.08-0.08-0.08-0.08-0.16-0.16
		c-0.16-0.08-0.31-0.23-0.46-0.39c-0.08-0.08-0.16-0.08-0.23-0.16c-0.16-0.08-0.31-0.23-0.47-0.31c-0.08-0.08-0.16-0.08-0.23-0.15
		c-0.16-0.16-0.39-0.31-0.54-0.47c0,0-0.08,0-0.08-0.08c-0.15-0.15-0.39-0.38-0.54-0.54c-0.08-0.08-0.08-0.08-0.15-0.16
		c-0.16-0.16-0.31-0.23-0.39-0.39c-0.08-0.07-0.08-0.07-0.16-0.16c-0.16-0.16-0.31-0.39-0.54-0.54l0,0
		c-0.16-0.15-0.31-0.39-0.54-0.62c-0.08-0.08-0.08-0.08-0.15-0.16c-0.16-0.15-0.23-0.31-0.39-0.46c-0.08-0.08-0.08-0.08-0.16-0.16
		c-0.23-0.08-0.39-0.31-0.54-0.47c-3.87-5.27-5.26-12.62-2.17-18.58"/>
	<path class="st3" d="M511.77,10.87c-2.56,3.72-2.4,8.59-0.39,12.46c0.31,0.62,0.7,1.31,1.16,1.86c0.39,0.54,0.77,1.16,1.32,1.62
		c0.16,0.23,0.39,0.39,0.54,0.62c0.08,0.08,0.08,0.08,0.15,0.16c0.16,0.16,0.39,0.39,0.62,0.54l0,0l0,0
		c0.23,0.23,0.46,0.39,0.7,0.54c0.08,0.08,0.08,0.08,0.15,0.15c0.24,0.16,0.46,0.39,0.7,0.55l0,0c0.08,0.07,0.23,0.15,0.31,0.23
		c0.08,0,0.08,0.08,0.15,0.08c0.16,0.08,0.39,0.23,0.54,0.31c0,0,0.08,0,0.08,0.07c0.15,0.08,0.31,0.16,0.46,0.23
		c0.08,0,0.08,0.08,0.16,0.08c0.08,0.08,0.23,0.08,0.31,0.16c0,0,0,0,0.08,0c0.23,0.08,0.47,0.23,0.7,0.31
		c0.08,0,0.08,0.08,0.16,0.08c0.15,0.08,0.39,0.15,0.54,0.23c0.08,0,0.16,0.08,0.23,0.08c0.15,0.08,0.31,0.15,0.54,0.15
		c0.08,0,0.16,0.08,0.23,0.08c0.23,0.08,0.46,0.16,0.78,0.23c13.16,2.17,16.18-7.97,16.18-7.97c-2.71,3.95-8.05,5.8-13.7,4.33
		c-0.23-0.08-0.47-0.15-0.78-0.23c-0.08,0-0.15-0.08-0.23-0.08c-0.16-0.08-0.39-0.08-0.54-0.16c-0.08,0-0.15-0.07-0.23-0.07
		c-0.16-0.08-0.39-0.16-0.54-0.24c-0.08,0-0.08-0.07-0.15-0.07c-0.23-0.08-0.47-0.23-0.7-0.31c-0.08-0.08-0.23-0.15-0.31-0.15
		c-0.07,0-0.15-0.08-0.23-0.08c-0.16-0.07-0.31-0.15-0.46-0.23c0,0-0.08,0-0.08-0.08c-0.15-0.08-0.39-0.23-0.54-0.31
		c-0.08,0-0.08-0.08-0.16-0.08c-0.07-0.08-0.23-0.16-0.31-0.23c-0.23-0.15-0.47-0.31-0.7-0.54c-0.08-0.08-0.08-0.08-0.16-0.16
		c-2.47-1.93-4.41-4.64-5.34-7.66c-1-3.17-0.77-6.66,0.93-9.52"/>
	<path class="st3" d="M520.97,7.7c-1.47,2.24-1.62,4.95-0.62,7.43c1.08,2.63,3.33,4.65,5.96,5.57c0.08,0.08,0.23,0.08,0.31,0.08
		s0.08,0,0.16,0.08c0.16,0.08,0.31,0.08,0.47,0.16c7.28,1.39,9.21-3.72,9.75-4.49c-1.7,2.47-4.65,3.1-8.21,2.25
		c-0.31-0.08-0.62-0.16-0.85-0.24c-0.31-0.15-0.69-0.23-1.01-0.39c-0.62-0.31-1.24-0.7-1.78-1.08c-3.17-2.4-5.19-7.04-3.09-10.76"/>
	<path class="st3" d="M540.34,54.21l0.11,0.44c0.03,0.11-0.05,0.22-0.16,0.22"/>
	<path class="st3" d="M532.16,53.47c-0.03,0.11-0.05,0.28-0.08,0.36l-0.91,4.2l0.94-4.42L532.16,53.47z"/>
	<path class="st3" d="M505.25,56.29l-0.5,1.77L505.25,56.29z"/>
	<path class="st3" d="M540.45,54.66l-0.25-1.1c-0.2-0.8-0.77-1.16-2.07-1.16h-5.47c-0.14,0-0.25,0.05-0.28,0.19l-2.07,9.84
		c-0.03,0.14-0.03,0.22-0.03,0.28c0.03,0.06,0.25,0.06,0.39,0.06h1.91c0.14,0,0.36,0,0.41-0.03c0.08-0.03,0.11-0.22,0.14-0.33
		l0.66-3.45l0.83-3.84c0.03-0.11,0.14-0.22,0.28-0.22h5.42C540.4,54.88,540.48,54.77,540.45,54.66"/>
	<path class="st3" d="M548.16,50.65c-0.14,0-2.4,0-2.4,0c-0.14,0-0.28,0.14-0.36,0.25l-4.23,6.19c-0.08,0.11-0.17,0.11-0.2-0.03
		l-0.3-1.35c-0.03-0.11-0.17-0.22-0.28-0.22h-2.71c-0.14,0-0.19,0.11-0.16,0.22l1.21,4.25c0.03,0.11,0.03,0.33,0,0.44l-0.58,2.16
		c-0.03,0.11,0.06,0.17,0.17,0.17h2.68c0.14,0,0.25-0.03,0.28-0.17l0.58-2.18c0.03-0.11,0.11-0.28,0.19-0.39l6.88-9.12
		c0.08-0.11,0.06-0.22-0.05-0.22L548.16,50.65L548.16,50.65z"/>
	<path class="st3" d="M519.92,52.39h-2.46c-0.14,0-0.25,0.06-0.28,0.17l-0.8,3.79l-0.8,3.62c-0.03,0.11-0.14,0.11-0.28,0.11h-1.6
		c-1.6,0-1.41-0.99-1.08-2.52c0-0.03,1.02-5,1.02-5c0.03-0.11-0.06-0.17-0.2-0.17h-2.32c-0.14,0-0.25,0.06-0.28,0.17l-0.94,5
		c-0.47,2.71-0.47,5.08,2.65,5.17c0.05,0,4.95,0,4.95,0c0.14,0,0.25-0.06,0.28-0.17l1.08-5.03l1.05-5.03
		C519.92,52.5,519.98,52.39,519.92,52.39z"/>
	<path class="st3" d="M495.55,52.39h-2.62c-0.14,0-0.25,0.03-0.28,0.17l-0.47,2.04c-0.03,0.11,0.06,0.22,0.19,0.22h2.51
		c0.14,0,0.25-0.11,0.28-0.25l0.44-2.07C495.61,52.5,495.66,52.39,495.55,52.39z"/>
	<path class="st3" d="M492.21,55.48c-0.14,0-0.25,0.11-0.28,0.22l-0.36,1.57l-0.8,3.62c0,0-0.41,1.91-0.47,2.04
		c0,0-0.36,1.38-1.19,1.33c-0.39-0.03-0.83-0.11-0.83-0.11l0,0c-0.25-0.08-0.25,0.17-0.28,0.3l-0.53,2.24
		c-0.03,0.11,0.05,0.22,0.17,0.25c0,0,1.13,0.17,1.93,0.17h0.14c1.96,0,3.01-1.16,3.68-4.31l0.77-3.68l0.72-3.4
		c0.03-0.11-0.05-0.25-0.17-0.25"/>
	<path class="st3" d="M526.11,52.36c-4.42,0-5.47,2.74-6.05,5.42c-0.58,2.76-0.53,4.95,4.04,4.95h0.17c1.82,0,4,0,4,0
		c0.11,0,0.25-0.11,0.28-0.25l0.44-1.74c0.03-0.11-0.06-0.17-0.2-0.17h-4.12c-1.49,0-2.02-0.47-1.96-1.49
		c0-0.11,0.14-0.41,0.25-0.41h6.33c0.28,0,0.28-0.17,0.28-0.17C530.26,55.62,530.29,52.36,526.11,52.36 M527.28,56.7
		c0,0.14-0.44,0.11-0.44,0.11l-3.43-0.03c-0.11,0-0.16-0.17-0.16-0.28c0,0,0-0.14,0.03-0.17c0.28-0.91,1.05-1.44,2.32-1.44
		c1.41,0,1.71,0.69,1.71,1.49"/>
	<path class="st3" d="M507.05,59.88c0,0,1.24-3.01,1.52-4.72c0.39-2.32-0.77-5.69-5.28-5.69c-4.45,0-6.38,3.2-7.13,6.71
		c-0.75,3.51,0.22,6.58,4.67,6.55h6.77c0.14,0,0.25-0.11,0.28-0.22l0.58-2.18c0.03-0.11-0.06-0.22-0.17-0.22h-0.55h-0.55
		c-0.11,0-0.17-0.08-0.17-0.17C507.05,59.93,507.05,59.91,507.05,59.88 M504.73,58.05l-0.5,1.74c-0.03,0.11-0.16,0.19-0.3,0.19
		h-2.62c-1.99,0-2.49-1.55-1.99-3.84c0.5-2.35,1.44-3.78,3.4-3.95c2.68-0.19,3.23,1.69,2.57,3.87L504.73,58.05z"/>
</g>
<g>
	<path class="st4" d="M207.49,0h49.68c7.53,0,13.62,6.09,13.62,13.62v47.76c0,7.53-6.09,13.62-13.62,13.62h-49.68
		c-7.53,0-13.62-6.09-13.62-13.62V13.62C193.87,6.09,199.96,0,207.49,0z"/>
	<path class="st5" d="M218.06,65.53l5.74-3.47c1.11,1.96,2.12,3.62,4.53,3.62c2.32,0,3.78-0.9,3.78-4.43V37.28h7.05v24.06
		c0,7.3-4.28,10.62-10.52,10.62C222.99,71.97,219.72,69.05,218.06,65.53 M242.98,64.77l5.74-3.32c1.51,2.47,3.47,4.28,6.95,4.28
		c2.92,0,4.78-1.46,4.78-3.47c0-2.42-1.91-3.27-5.13-4.68l-1.76-0.76c-5.08-2.16-8.46-4.88-8.46-10.62c0-5.29,4.03-9.31,10.32-9.31
		c4.48,0,7.7,1.56,10.02,5.64l-5.49,3.52c-1.21-2.16-2.52-3.02-4.53-3.02c-2.06,0-3.37,1.31-3.37,3.02c0,2.12,1.31,2.97,4.33,4.28
		l1.76,0.76c5.99,2.57,9.36,5.19,9.36,11.08c0,6.34-4.98,9.82-11.68,9.82C249.27,71.97,245.04,68.85,242.98,64.77"/>
</g>
<path class="st6" d="M63.3,0H13.62C6.09,0,0,6.09,0,13.62v47.76C0,68.91,6.09,75,13.62,75H63.3c7.53,0,13.62-6.09,13.62-13.62V13.62
	C76.92,6.09,70.83,0,63.3,0z"/>
<path class="st3" d="M49.33,7.5h2.7v5.41h3.82v2.67h-6.51V7.5z M38.87,7.5h2.82l1.74,2.85l1.73-2.85h2.82v8.09h-2.7v-4.01
	l-1.89,2.91l-1.89-2.91v4.01h-2.65L38.87,7.5z M30.22,7.5h7.46v2.7H35.3v5.39h-2.7V10.2h-2.38V7.5z M21.17,7.5h2.7v2.67h2.48V7.5
	h2.7v8.09h-2.7v-2.7h-2.46v2.7h-2.72V7.5z M55.85,62.67L38.43,67.5l-17.36-4.8L17.2,19.29h42.52L55.85,62.67z"/>
<polygon class="st6" points="38.49,58.28 49.36,55.27 50.82,38.93 38.49,38.93 38.46,38.93 31.46,38.93 30.96,33.48 38.46,33.48 
	38.49,33.48 51.31,33.48 51.8,28.16 38.49,28.16 38.46,28.16 25.13,28.16 26.58,44.24 38.46,44.24 38.46,44.25 45.02,44.25 
	44.4,51.17 38.47,52.75 38.49,52.76 38.46,52.76 38.47,52.75 32.53,51.17 32.16,46.91 26.81,46.91 27.56,55.27 38.49,58.31 
	38.49,58.28 38.46,58.29 "/>
<g>
	<path class="st7" d="M257.17,93.59h-49.68c-7.53,0-13.62,6.09-13.62,13.62v47.76c0,7.53,6.09,13.62,13.62,13.62h49.68
		c7.53,0,13.62-6.09,13.62-13.62v-47.76C270.79,99.68,264.7,93.59,257.17,93.59z M221.82,146.09c0,0.35-0.16,0.51-0.45,0.51h-6.28
		c-0.29,0-0.42-0.16-0.42-0.51v-32.88c0-0.29,0.16-0.42,0.45-0.42h6.25c0.19-0.03,0.38,0.1,0.42,0.32c0.03,0.03,0.03,0.06,0.03,0.1
		V146.09z M250.44,145.13c-1.67,0.71-3.43,1.22-5.22,1.54c-1.6,0.29-3.27,0.45-4.94,0.45c-2.37,0.03-4.74-0.45-6.89-1.44
		c-2.02-0.93-3.69-2.47-4.84-4.36c-1.19-1.96-1.76-4.39-1.76-7.31c-0.03-2.37,0.58-4.71,1.76-6.76c1.22-2.08,2.98-3.81,5.1-4.97
		c2.24-1.25,4.94-1.86,8.11-1.86c0.16,0,0.38,0,0.67,0.03c0.29,0.03,0.61,0.03,0.99,0.06v-10.13c0-0.22,0.1-0.35,0.32-0.35h6.51
		c0.16-0.03,0.29,0.1,0.32,0.22c0,0.03,0,0.06,0,0.06v30.51c0,0.58,0.03,1.22,0.06,1.92c0.06,0.67,0.1,1.31,0.13,1.86
		C250.76,144.84,250.66,145.04,250.44,145.13z"/>
	<path class="st7" d="M241.5,126.38c-1.25,0-2.5,0.26-3.62,0.83c-1.09,0.55-2.02,1.35-2.72,2.37c-0.71,1.03-1.06,2.4-1.06,4.07
		c-0.03,1.12,0.16,2.24,0.54,3.3c0.32,0.87,0.8,1.63,1.44,2.28c0.61,0.58,1.35,1.03,2.18,1.28c0.87,0.29,1.76,0.42,2.66,0.42
		c0.48,0,0.93-0.03,1.35-0.06c0.42,0.03,0.8-0.03,1.15-0.16v-14.1c-0.29-0.06-0.58-0.13-0.87-0.16
		C242.2,126.41,241.85,126.38,241.5,126.38z"/>
	<path class="st8" d="M221.37,112.79h-6.25c-0.29,0-0.45,0.13-0.45,0.42v32.88c0,0.35,0.13,0.51,0.42,0.51h6.28
		c0.29,0,0.45-0.16,0.45-0.51v-32.88c0-0.03,0-0.06-0.03-0.1C221.75,112.89,221.56,112.76,221.37,112.79z"/>
	<path class="st8" d="M250.57,140.84v-30.51c0,0,0-0.03,0-0.06c-0.03-0.13-0.16-0.26-0.32-0.22h-6.51c-0.22,0-0.32,0.13-0.32,0.35
		v10.13c-0.38-0.03-0.71-0.03-0.99-0.06c-0.29-0.03-0.51-0.03-0.67-0.03c-3.17,0-5.87,0.61-8.11,1.86c-2.12,1.15-3.88,2.88-5.1,4.97
		c-1.19,2.05-1.79,4.39-1.76,6.76c0,2.92,0.58,5.35,1.76,7.31c1.15,1.89,2.82,3.43,4.84,4.36c2.15,0.99,4.52,1.47,6.89,1.44
		c1.67,0,3.33-0.16,4.94-0.45c1.79-0.32,3.56-0.83,5.22-1.54c0.22-0.1,0.32-0.29,0.32-0.51c-0.03-0.54-0.06-1.19-0.13-1.86
		C250.6,142.05,250.57,141.41,250.57,140.84z M243.42,140.71c-0.35,0.13-0.74,0.19-1.15,0.16c-0.42,0.03-0.87,0.06-1.35,0.06
		c-0.9,0-1.79-0.13-2.66-0.42c-0.83-0.26-1.57-0.71-2.18-1.28c-0.64-0.64-1.12-1.41-1.44-2.28c-0.38-1.06-0.58-2.18-0.54-3.3
		c0-1.67,0.35-3.04,1.06-4.07c0.71-1.03,1.63-1.83,2.72-2.37c1.12-0.58,2.37-0.83,3.62-0.83c0.35,0,0.7,0.03,1.06,0.06
		c0.29,0.03,0.58,0.1,0.87,0.16V140.71z"/>
</g>
<g>
	<path class="st9" d="M160.25,93.59h-49.68c-7.53,0-13.62,6.09-13.62,13.62v47.76c0,7.53,6.09,13.62,13.62,13.62h49.68
		c7.53,0,13.62-6.09,13.62-13.62v-47.76C173.87,99.68,167.78,93.59,160.25,93.59z M144.06,146.57h-6.7
		c-0.22,0.03-0.45-0.13-0.51-0.35l-2.63-7.63H122.3l-2.44,7.53c-0.06,0.29-0.32,0.48-0.61,0.45h-6.03c-0.35,0-0.45-0.19-0.35-0.58
		l10.32-29.71c0.1-0.32,0.19-0.67,0.32-1.06c0.13-0.67,0.19-1.38,0.19-2.08c-0.03-0.16,0.1-0.32,0.26-0.35c0.03,0,0.06,0,0.1,0h8.21
		c0.26,0,0.38,0.1,0.42,0.26l11.7,33.01C144.48,146.41,144.38,146.57,144.06,146.57z M154.96,146.09c0,0.35-0.13,0.51-0.42,0.51
		h-6.28c-0.32,0-0.48-0.19-0.48-0.51v-24.68c0-0.32,0.13-0.45,0.42-0.45h6.35c0.29,0,0.42,0.16,0.42,0.45V146.09z M154.29,117.15
		c-0.74,0.77-1.83,1.19-2.92,1.12c-1.06,0.03-2.08-0.38-2.85-1.12c-0.74-0.8-1.12-1.86-1.09-2.95c-0.03-1.09,0.38-2.12,1.15-2.85
		c0.77-0.74,1.79-1.12,2.85-1.12c1.25,0,2.21,0.38,2.92,1.12c0.71,0.77,1.09,1.79,1.06,2.85
		C155.44,115.29,155.05,116.35,154.29,117.15z"/>
	<path class="st9" d="M130.7,127.02c-0.32-0.99-0.61-1.96-0.93-2.95c-0.32-0.99-0.61-1.92-0.87-2.85c-0.26-0.9-0.48-1.73-0.71-2.5
		h-0.06c-0.29,1.38-0.64,2.76-1.09,4.13c-0.48,1.54-0.96,3.14-1.47,4.74c-0.45,1.63-0.93,3.14-1.41,4.49h8.14
		c-0.19-0.67-0.45-1.47-0.74-2.31C131.27,128.91,130.98,127.98,130.7,127.02z"/>
	<path class="st10" d="M132.68,113.05c-0.03-0.16-0.16-0.26-0.42-0.26h-8.21c-0.03,0-0.06,0-0.1,0c-0.16,0.03-0.29,0.19-0.26,0.35
		c0,0.71-0.06,1.41-0.19,2.08c-0.13,0.38-0.22,0.74-0.32,1.06L112.88,146c-0.1,0.38,0,0.58,0.35,0.58h6.03
		c0.29,0.03,0.54-0.16,0.61-0.45l2.44-7.53h11.92l2.63,7.63c0.06,0.22,0.29,0.38,0.51,0.35h6.7c0.32,0,0.42-0.16,0.32-0.51
		L132.68,113.05z M124.16,132.09c0.48-1.35,0.96-2.85,1.41-4.49c0.51-1.6,0.99-3.21,1.47-4.74c0.45-1.38,0.8-2.76,1.09-4.13h0.06
		c0.22,0.77,0.45,1.6,0.71,2.5c0.26,0.93,0.54,1.86,0.87,2.85c0.32,0.99,0.61,1.95,0.93,2.95c0.29,0.96,0.58,1.89,0.87,2.76
		c0.29,0.83,0.54,1.63,0.74,2.31H124.16z"/>
	<path class="st10" d="M151.43,110.23c-1.06,0-2.08,0.38-2.85,1.12c-0.77,0.74-1.19,1.76-1.15,2.85c-0.03,1.09,0.35,2.15,1.09,2.95
		c0.77,0.74,1.8,1.15,2.85,1.12c1.09,0.06,2.18-0.35,2.92-1.12c0.77-0.8,1.15-1.86,1.12-2.95c0.03-1.06-0.35-2.08-1.06-2.85
		C153.64,110.61,152.68,110.23,151.43,110.23z"/>
	<path class="st10" d="M154.54,120.96h-6.35c-0.29,0-0.42,0.13-0.42,0.45v24.68c0,0.32,0.16,0.51,0.48,0.51h6.28
		c0.29,0,0.42-0.16,0.42-0.51v-24.68C154.96,121.12,154.83,120.96,154.54,120.96z"/>
</g>
<line class="st11" x1="184.18" y1="52.75" x2="184.16" y2="52.76"/>
<polyline class="st11" points="184.16,58.3 184.17,58.3 184.18,58.29 "/>
<line class="st11" x1="184.18" y1="52.75" x2="184.16" y2="52.76"/>
<polyline class="st11" points="184.16,58.3 184.17,58.3 184.18,58.29 "/>
<g>
	<path class="st12" d="M160.25,0h-49.68c-7.53,0-13.62,6.09-13.62,13.62v47.76c0,7.53,6.09,13.62,13.62,13.62h49.68
		c7.53,0,13.62-6.09,13.62-13.62V13.62C173.87,6.09,167.78,0,160.25,0z"/>
	<g>
		<path class="st3" d="M139.63,13.24h3.75v-0.47h-3.75V7.5h6.45v2.34h-3.75v0.47h3.75v5.39h-6.45V13.24z M131.89,13.24h3.75v-0.47
			h-3.75V7.5h6.45v2.34h-3.75v0.47h3.75v5.39h-6.45V13.24z M124.16,7.5h6.45v2.7h-3.75v2.69h3.75v2.7h-6.45V7.5z M152.79,62.68
			l-17.41,4.83l-17.36-4.82l-3.87-43.39h42.51L152.79,62.68z"/>
		<polygon class="st12" points="135.42,28.16 135.4,28.16 122.08,28.16 122.56,33.48 135.4,33.48 135.42,33.48 142.91,33.48 
			142.42,38.93 135.42,38.93 135.4,38.93 123.04,38.93 123.51,44.25 135.4,44.25 135.42,44.25 141.96,44.25 141.34,51.16 
			135.4,52.76 135.4,52.76 135.4,52.76 129.47,51.16 129.09,46.92 126.21,46.92 123.75,46.92 124.5,55.27 135.4,58.3 135.41,58.3 
			135.4,58.3 135.42,58.29 135.41,58.3 146.32,55.27 146.4,54.37 147.64,40.36 147.78,38.93 148.74,28.16 		"/>
	</g>
</g>
<g>
	<path class="st13" d="M304.41-0.62h49.68c7.53,0,13.62,6.09,13.62,13.62v47.76c0,7.53-6.09,13.62-13.62,13.62h-49.68
		c-7.53,0-13.62-6.09-13.62-13.62V13C290.79,5.47,296.88-0.62,304.41-0.62z"/>
	<g id="W_Mark_2_">
		<path class="st3" d="M329.25,8.38c3.85,0,7.58,0.75,11.09,2.24c1.69,0.71,3.32,1.6,4.84,2.63c1.51,1.02,2.93,2.19,4.22,3.48
			c1.29,1.29,2.46,2.71,3.48,4.22c1.03,1.52,1.91,3.15,2.63,4.84c1.49,3.51,2.24,7.25,2.24,11.09s-0.75,7.58-2.24,11.09
			c-0.71,1.69-1.6,3.32-2.63,4.84c-1.02,1.51-2.19,2.93-3.48,4.22c-1.29,1.29-2.71,2.46-4.22,3.48c-1.52,1.03-3.15,1.91-4.84,2.63
			c-3.51,1.49-7.25,2.24-11.09,2.24s-7.58-0.75-11.09-2.24c-1.69-0.71-3.32-1.6-4.84-2.63c-1.51-1.02-2.93-2.19-4.22-3.48
			c-1.29-1.29-2.46-2.71-3.48-4.22c-1.03-1.52-1.91-3.15-2.63-4.84c-1.49-3.51-2.24-7.25-2.24-11.09s0.75-7.58,2.24-11.09
			c0.71-1.69,1.6-3.32,2.63-4.84c1.02-1.51,2.19-2.93,3.48-4.22c1.29-1.29,2.71-2.46,4.22-3.48c1.52-1.03,3.15-1.91,4.84-2.63
			C321.67,9.13,325.41,8.38,329.25,8.38 M329.25,6.56c-16.75,0-30.32,13.58-30.32,30.32s13.58,30.32,30.32,30.32
			s30.32-13.58,30.32-30.32S346,6.56,329.25,6.56L329.25,6.56z"/>
		<path class="st3" d="M303.99,36.88c0,10,5.81,18.65,14.24,22.74L306.17,26.6C304.77,29.74,303.99,33.22,303.99,36.88z
			 M346.31,35.61c0-3.12-1.12-5.29-2.08-6.97c-1.28-2.08-2.48-3.84-2.48-5.93c0-2.32,1.76-4.48,4.24-4.48
			c0.11,0,0.22,0.01,0.33,0.02c-4.5-4.12-10.49-6.63-17.06-6.63c-8.83,0-16.59,4.53-21.11,11.39c0.59,0.02,1.15,0.03,1.63,0.03
			c2.64,0,6.73-0.32,6.73-0.32c1.36-0.08,1.52,1.92,0.16,2.08c0,0-1.37,0.16-2.89,0.24l9.2,27.37l5.53-16.58l-3.94-10.79
			c-1.36-0.08-2.65-0.24-2.65-0.24c-1.36-0.08-1.2-2.16,0.16-2.08c0,0,4.17,0.32,6.65,0.32c2.64,0,6.74-0.32,6.74-0.32
			c1.36-0.08,1.52,1.92,0.16,2.08c0,0-1.37,0.16-2.89,0.24l9.13,27.16l2.61-8.26C345.63,40.33,346.31,37.77,346.31,35.61z
			 M329.7,39.09l-7.58,22.03c2.26,0.67,4.66,1.03,7.14,1.03c2.94,0,5.77-0.51,8.39-1.43c-0.07-0.11-0.13-0.22-0.18-0.35L329.7,39.09
			z M351.43,24.76c0.11,0.8,0.17,1.67,0.17,2.6c0,2.56-0.48,5.45-1.92,9.05l-7.72,22.31c7.51-4.38,12.56-12.52,12.56-21.84
			C354.52,32.49,353.4,28.36,351.43,24.76z"/>
	</g>
</g>
</svg>
